<?xml version="1.0" encoding="utf-8"?>
<!-- Generator: Adobe Illustrator 22.0.1, SVG Export Plug-In . SVG Version: 6.00 Build 0)  -->
<svg version="1.1" id="Capa_1" xmlns="http://www.w3.org/2000/svg" xmlns:xlink="http://www.w3.org/1999/xlink" x="0px" y="0px"
	 viewBox="0 0 112.2 112.2" style="enable-background:new 0 0 112.2 112.2;" xml:space="preserve">
<style type="text/css">
	.st0{fill:#4B98DD;}
	.st1{fill:#FFFFFF;}
</style>
<g>
	<g>
		<circle id="XMLID_30_" class="st0" cx="56.1" cy="56.1" r="56.1"/>
	</g>
	<g>
		<g>
			<path class="st1" d="M21.6,56.1C20.9,38,36.8,21.1,55,20.9c9.3-0.8,18.3,2.8,25.3,8.7c-2.9,3.2-5.8,6.3-8.9,9.2
				c-6.2-3.8-13.6-6.6-20.9-4.1c-11.7,3.3-18.7,17.1-14.4,28.5c3.6,11.9,18.1,18.4,29.4,13.4c5.9-2.1,9.8-7.5,11.5-13.4
				c-6.7-0.1-13.5-0.1-20.2-0.2c0-4,0-8,0-12c11.2,0,22.5-0.1,33.7,0.1c0.7,9.8-0.8,20.3-7.1,28.2c-8.7,11.3-24.9,14.6-38,10.1
				C31.4,84.9,21.2,70.9,21.6,56.1z"/>
		</g>
	</g>
</g>
</svg>
