<?xml version="1.0" encoding="utf-8"?>
<!-- Generator: Adobe Illustrator 22.0.1, SVG Export Plug-In . SVG Version: 6.00 Build 0)  -->
<svg version="1.1" id="Layer_1" xmlns="http://www.w3.org/2000/svg" xmlns:xlink="http://www.w3.org/1999/xlink" x="0px" y="0px"
	 viewBox="0 0 89.8 89.8" style="enable-background:new 0 0 89.8 89.8;" xml:space="preserve">
<style type="text/css">
	.st0{fill:url(#SVGID_1_);}
	.st1{fill:#FFFFFF;}
</style>
<g>
	<linearGradient id="SVGID_1_" gradientUnits="userSpaceOnUse" x1="0" y1="44.88" x2="89.76" y2="44.88">
		<stop  offset="0" style="stop-color:#CD486B"/>
		<stop  offset="1" style="stop-color:#FCCC63"/>
	</linearGradient>
	<circle class="st0" cx="44.9" cy="44.9" r="44.9"/>
	<path class="st1" d="M58.3,18H31.5c-7.5,0-13.6,6.1-13.6,13.6v26.8C17.9,65.9,24,72,31.5,72h26.8c7.5,0,13.6-6.1,13.6-13.6V31.6
		C71.9,24.1,65.8,18,58.3,18z M66,58.4c0,4.3-3.5,7.7-7.7,7.7H31.5c-4.3,0-7.7-3.5-7.7-7.7V31.6c0-4.3,3.5-7.7,7.7-7.7h26.8
		c4.3,0,7.7,3.5,7.7,7.7V58.4z"/>
	<path class="st1" d="M44.9,31.1C37.2,31.1,31,37.3,31,45s6.2,13.9,13.9,13.9S58.8,52.7,58.8,45C58.8,37.3,52.5,31.1,44.9,31.1z
		 M44.9,53c-4.4,0-8-3.6-8-8s3.6-8,8-8s8,3.6,8,8S49.3,53,44.9,53z"/>
	<path class="st1" d="M62.5,30.7c0,1.8-1.5,3.3-3.3,3.3c-1.8,0-3.3-1.5-3.3-3.3s1.5-3.3,3.3-3.3C61,27.4,62.5,28.9,62.5,30.7z"/>
</g>
</svg>
