<svg xmlns="http://www.w3.org/2000/svg" viewBox="0 0 969.71 929.01"><defs><style>.cls-1{fill:#fff;stroke:#fff;stroke-miterlimit:10;}</style></defs><title>Element 36</title><g id="Ebene_2" data-name="Ebene 2"><g id="Ebene_1-2" data-name="Ebene 1"><rect class="cls-1" x="244.09" y="362.44" width="101.44" height="113.96"/><rect class="cls-1" x="100.07" y="837.09" width="349.41" height="91.42"/><polygon class="cls-1" points="969.21 701.83 969.21 720.62 955.43 720.62 955.43 892.19 885.3 892.19 885.3 835.84 900.33 824.57 848.98 709.35 909.1 611.66 930.39 679.29 945.42 679.29 969.21 701.83"/><polygon class="cls-1" points="349.92 340.53 244.72 340.53 286.05 310.47 286.67 183.36 337.39 132.64 337.39 1.14 364.32 0.51 364.32 115.73 430.69 182.1 430.69 306.09 464.51 339.9 365.57 339.9 365.57 299.2 349.92 299.2 349.92 340.53"/><polygon class="cls-1" points="365.57 497.7 464.51 497.7 464.51 574.09 692.44 574.09 662.38 604.15 365.57 604.15 365.57 497.7"/><polygon class="cls-1" points="573.46 679.29 528.38 630.45 649.86 630.45 621.05 679.29 573.46 679.29"/><polygon class="cls-1" points="311.09 649.86 244.09 582.86 244.09 497.7 348.04 497.7 348.04 612.92 311.09 649.86"/><polygon class="cls-1" points="835.21 679.29 639.84 679.29 706.22 582.86 900.33 582.86 835.21 679.29"/><polygon class="cls-1" points="827.69 709.35 875.28 819.56 478.29 819.56 464.51 764.45 464.51 709.35 827.69 709.35"/><polygon class="cls-1" points="435.7 720.62 449.48 819.56 100.07 819.56 100.07 798.27 187.74 720.62 435.7 720.62"/><polygon class="cls-1" points="421.93 679.29 374.34 630.45 498.32 630.45 545.91 679.29 421.93 679.29"/><polygon class="cls-1" points="161.44 709.35 81.29 709.35 219.05 582.86 295.44 654.25 259.12 688.06 161.44 688.06 161.44 709.35"/><polygon class="cls-1" points="133.88 736.9 81.29 794.51 2.39 794.51 133.88 736.9"/><rect class="cls-1" x="474.53" y="837.09" width="378.21" height="91.42"/><polygon class="cls-1" points="354.3 639.22 400.64 688.06 295.44 688.06 354.3 639.22"/><rect class="cls-1" x="18.67" y="819.56" width="52.6" height="108.96"/><rect class="cls-1" x="365.57" y="362.44" width="98.94" height="113.96"/><polygon class="cls-1" points="701.21 542.78 502.08 542.78 502.08 448.86 582.23 458.88 649.86 482.67 704.96 482.67 716.23 506.47 752.55 544.04 752.55 564.08 701.21 564.08 701.21 542.78"/></g></g></svg>